<mxfile host="app.diagrams.net" modified="2021-06-16T15:57:13.886Z" agent="5.0 (Macintosh; Intel Mac OS X 10_15_7) AppleWebKit/537.36 (KHTML, like Gecko) Chrome/91.0.4472.77 Safari/537.36" etag="jr6O1C8fiMOGzPBQPdQ-" version="14.7.6" type="github">
  <diagram id="zKSjdV-KzfEBLxCSCoNK" name="Page-1">
    <mxGraphModel dx="2066" dy="1104" grid="1" gridSize="10" guides="1" tooltips="1" connect="1" arrows="1" fold="1" page="1" pageScale="1" pageWidth="1169" pageHeight="1654" math="0" shadow="0">
      <root>
        <mxCell id="0" />
        <mxCell id="1" parent="0" />
        <mxCell id="yI6YtQsHIagEHyoHm0Sw-1" value="" style="rounded=0;whiteSpace=wrap;html=1;fillColor=#dae8fc;strokeColor=#6c8ebf;fontSize=14;" vertex="1" parent="1">
          <mxGeometry x="370" y="310" width="160" height="210" as="geometry" />
        </mxCell>
        <mxCell id="yI6YtQsHIagEHyoHm0Sw-2" value="L1 Cache" style="rounded=0;whiteSpace=wrap;html=1;fillColor=#ffe6cc;strokeColor=#d79b00;fontSize=14;" vertex="1" parent="1">
          <mxGeometry x="380" y="360" width="140" height="60" as="geometry" />
        </mxCell>
        <mxCell id="yI6YtQsHIagEHyoHm0Sw-3" value="L2 Cache" style="rounded=0;whiteSpace=wrap;html=1;fillColor=#fff2cc;strokeColor=#d6b656;fontSize=14;" vertex="1" parent="1">
          <mxGeometry x="380" y="440" width="140" height="60" as="geometry" />
        </mxCell>
        <mxCell id="yI6YtQsHIagEHyoHm0Sw-4" value="Core 1" style="text;html=1;strokeColor=none;fillColor=none;align=center;verticalAlign=middle;whiteSpace=wrap;rounded=0;fontSize=14;" vertex="1" parent="1">
          <mxGeometry x="425" y="330" width="50" height="20" as="geometry" />
        </mxCell>
        <mxCell id="yI6YtQsHIagEHyoHm0Sw-5" value="" style="rounded=0;whiteSpace=wrap;html=1;fillColor=#f8cecc;strokeColor=#b85450;fontSize=14;" vertex="1" parent="1">
          <mxGeometry x="370" y="540" width="370" height="80" as="geometry" />
        </mxCell>
        <mxCell id="yI6YtQsHIagEHyoHm0Sw-6" value="" style="rounded=0;whiteSpace=wrap;html=1;fillColor=#dae8fc;strokeColor=#6c8ebf;fontSize=14;" vertex="1" parent="1">
          <mxGeometry x="580" y="310" width="160" height="210" as="geometry" />
        </mxCell>
        <mxCell id="yI6YtQsHIagEHyoHm0Sw-7" value="L1 Cache" style="rounded=0;whiteSpace=wrap;html=1;fillColor=#ffe6cc;strokeColor=#d79b00;fontSize=14;" vertex="1" parent="1">
          <mxGeometry x="590" y="360" width="140" height="60" as="geometry" />
        </mxCell>
        <mxCell id="yI6YtQsHIagEHyoHm0Sw-8" value="L2 Cache" style="rounded=0;whiteSpace=wrap;html=1;fillColor=#fff2cc;strokeColor=#d6b656;fontSize=14;" vertex="1" parent="1">
          <mxGeometry x="590" y="440" width="140" height="60" as="geometry" />
        </mxCell>
        <mxCell id="yI6YtQsHIagEHyoHm0Sw-9" value="Core 2" style="text;html=1;strokeColor=none;fillColor=none;align=center;verticalAlign=middle;whiteSpace=wrap;rounded=0;fontSize=14;" vertex="1" parent="1">
          <mxGeometry x="635" y="330" width="50" height="20" as="geometry" />
        </mxCell>
        <mxCell id="yI6YtQsHIagEHyoHm0Sw-10" value="" style="rounded=0;whiteSpace=wrap;html=1;fontSize=14;fillColor=#ffe6cc;strokeColor=#d79b00;" vertex="1" parent="1">
          <mxGeometry x="370" y="650" width="370" height="110" as="geometry" />
        </mxCell>
        <mxCell id="yI6YtQsHIagEHyoHm0Sw-12" value="内存" style="text;html=1;strokeColor=none;fillColor=none;align=center;verticalAlign=middle;whiteSpace=wrap;rounded=0;fontSize=14;" vertex="1" parent="1">
          <mxGeometry x="535" y="737" width="40" height="20" as="geometry" />
        </mxCell>
        <mxCell id="yI6YtQsHIagEHyoHm0Sw-43" value="" style="group;fontSize=14;" vertex="1" connectable="0" parent="1">
          <mxGeometry x="387" y="670" width="340" height="90" as="geometry" />
        </mxCell>
        <mxCell id="yI6YtQsHIagEHyoHm0Sw-11" value="" style="rounded=0;whiteSpace=wrap;html=1;fontSize=14;" vertex="1" parent="yI6YtQsHIagEHyoHm0Sw-43">
          <mxGeometry width="340" height="20" as="geometry" />
        </mxCell>
        <mxCell id="yI6YtQsHIagEHyoHm0Sw-15" value="" style="rounded=0;whiteSpace=wrap;html=1;fontSize=14;" vertex="1" parent="yI6YtQsHIagEHyoHm0Sw-43">
          <mxGeometry y="20" width="340" height="20" as="geometry" />
        </mxCell>
        <mxCell id="yI6YtQsHIagEHyoHm0Sw-16" value="" style="rounded=0;whiteSpace=wrap;html=1;fontSize=14;" vertex="1" parent="yI6YtQsHIagEHyoHm0Sw-43">
          <mxGeometry y="40" width="340" height="20" as="geometry" />
        </mxCell>
        <mxCell id="yI6YtQsHIagEHyoHm0Sw-17" value="" style="rounded=0;whiteSpace=wrap;html=1;fillColor=none;fontSize=14;" vertex="1" parent="yI6YtQsHIagEHyoHm0Sw-43">
          <mxGeometry width="20" height="60" as="geometry" />
        </mxCell>
        <mxCell id="yI6YtQsHIagEHyoHm0Sw-18" value="" style="rounded=0;whiteSpace=wrap;html=1;fillColor=none;fontSize=14;" vertex="1" parent="yI6YtQsHIagEHyoHm0Sw-43">
          <mxGeometry x="20" width="20" height="60" as="geometry" />
        </mxCell>
        <mxCell id="yI6YtQsHIagEHyoHm0Sw-19" value="" style="rounded=0;whiteSpace=wrap;html=1;fillColor=none;fontSize=14;" vertex="1" parent="yI6YtQsHIagEHyoHm0Sw-43">
          <mxGeometry x="40" width="20" height="60" as="geometry" />
        </mxCell>
        <mxCell id="yI6YtQsHIagEHyoHm0Sw-20" value="" style="rounded=0;whiteSpace=wrap;html=1;fillColor=none;fontSize=14;" vertex="1" parent="yI6YtQsHIagEHyoHm0Sw-43">
          <mxGeometry x="60" width="20" height="60" as="geometry" />
        </mxCell>
        <mxCell id="yI6YtQsHIagEHyoHm0Sw-23" value="" style="rounded=0;whiteSpace=wrap;html=1;fillColor=none;fontSize=14;" vertex="1" parent="yI6YtQsHIagEHyoHm0Sw-43">
          <mxGeometry x="100" width="20" height="60" as="geometry" />
        </mxCell>
        <mxCell id="yI6YtQsHIagEHyoHm0Sw-24" value="" style="rounded=0;whiteSpace=wrap;html=1;fillColor=none;fontSize=14;" vertex="1" parent="yI6YtQsHIagEHyoHm0Sw-43">
          <mxGeometry x="120" width="20" height="60" as="geometry" />
        </mxCell>
        <mxCell id="yI6YtQsHIagEHyoHm0Sw-25" value="" style="rounded=0;whiteSpace=wrap;html=1;fillColor=none;fontSize=14;" vertex="1" parent="yI6YtQsHIagEHyoHm0Sw-43">
          <mxGeometry x="140" width="20" height="60" as="geometry" />
        </mxCell>
        <mxCell id="yI6YtQsHIagEHyoHm0Sw-26" value="" style="rounded=0;whiteSpace=wrap;html=1;fillColor=none;fontSize=14;" vertex="1" parent="yI6YtQsHIagEHyoHm0Sw-43">
          <mxGeometry x="160" width="20" height="60" as="geometry" />
        </mxCell>
        <mxCell id="yI6YtQsHIagEHyoHm0Sw-28" value="" style="rounded=0;whiteSpace=wrap;html=1;fillColor=none;fontSize=14;" vertex="1" parent="yI6YtQsHIagEHyoHm0Sw-43">
          <mxGeometry x="180" width="20" height="60" as="geometry" />
        </mxCell>
        <mxCell id="yI6YtQsHIagEHyoHm0Sw-30" value="" style="rounded=0;whiteSpace=wrap;html=1;fillColor=none;fontSize=14;" vertex="1" parent="yI6YtQsHIagEHyoHm0Sw-43">
          <mxGeometry x="200" width="20" height="60" as="geometry" />
        </mxCell>
        <mxCell id="yI6YtQsHIagEHyoHm0Sw-31" value="" style="rounded=0;whiteSpace=wrap;html=1;fillColor=none;fontSize=14;" vertex="1" parent="yI6YtQsHIagEHyoHm0Sw-43">
          <mxGeometry x="220" width="20" height="60" as="geometry" />
        </mxCell>
        <mxCell id="yI6YtQsHIagEHyoHm0Sw-35" value="" style="rounded=0;whiteSpace=wrap;html=1;fillColor=none;fontSize=14;" vertex="1" parent="yI6YtQsHIagEHyoHm0Sw-43">
          <mxGeometry x="240" width="20" height="60" as="geometry" />
        </mxCell>
        <mxCell id="yI6YtQsHIagEHyoHm0Sw-36" value="" style="rounded=0;whiteSpace=wrap;html=1;fillColor=none;fontSize=14;" vertex="1" parent="yI6YtQsHIagEHyoHm0Sw-43">
          <mxGeometry x="260" width="20" height="60" as="geometry" />
        </mxCell>
        <mxCell id="yI6YtQsHIagEHyoHm0Sw-37" value="" style="rounded=0;whiteSpace=wrap;html=1;fillColor=none;fontSize=14;" vertex="1" parent="yI6YtQsHIagEHyoHm0Sw-43">
          <mxGeometry x="280" width="20" height="60" as="geometry" />
        </mxCell>
        <mxCell id="yI6YtQsHIagEHyoHm0Sw-38" value="" style="rounded=0;whiteSpace=wrap;html=1;fillColor=none;fontSize=14;" vertex="1" parent="yI6YtQsHIagEHyoHm0Sw-43">
          <mxGeometry x="300" width="20" height="60" as="geometry" />
        </mxCell>
        <mxCell id="yI6YtQsHIagEHyoHm0Sw-39" value="" style="rounded=0;whiteSpace=wrap;html=1;fillColor=none;fontSize=14;" vertex="1" parent="yI6YtQsHIagEHyoHm0Sw-43">
          <mxGeometry x="320" width="20" height="60" as="geometry" />
        </mxCell>
        <mxCell id="yI6YtQsHIagEHyoHm0Sw-44" value="1" style="rounded=0;whiteSpace=wrap;html=1;fillColor=#D4E1F5;fontSize=14;" vertex="1" parent="yI6YtQsHIagEHyoHm0Sw-43">
          <mxGeometry x="80" y="20" width="20" height="20" as="geometry" />
        </mxCell>
        <mxCell id="yI6YtQsHIagEHyoHm0Sw-66" value="2" style="rounded=0;whiteSpace=wrap;html=1;fillColor=#D4E1F5;fontSize=14;" vertex="1" parent="yI6YtQsHIagEHyoHm0Sw-43">
          <mxGeometry x="100" y="20" width="20" height="20" as="geometry" />
        </mxCell>
        <mxCell id="yI6YtQsHIagEHyoHm0Sw-67" value="3" style="rounded=0;whiteSpace=wrap;html=1;fillColor=#D4E1F5;fontSize=14;" vertex="1" parent="yI6YtQsHIagEHyoHm0Sw-43">
          <mxGeometry x="120" y="20" width="20" height="20" as="geometry" />
        </mxCell>
        <mxCell id="yI6YtQsHIagEHyoHm0Sw-68" value="4" style="rounded=0;whiteSpace=wrap;html=1;fillColor=#D4E1F5;fontSize=14;" vertex="1" parent="yI6YtQsHIagEHyoHm0Sw-43">
          <mxGeometry x="140" y="20" width="20" height="20" as="geometry" />
        </mxCell>
        <mxCell id="yI6YtQsHIagEHyoHm0Sw-69" value="5" style="rounded=0;whiteSpace=wrap;html=1;fillColor=#D4E1F5;fontSize=14;" vertex="1" parent="yI6YtQsHIagEHyoHm0Sw-43">
          <mxGeometry x="160" y="20" width="20" height="20" as="geometry" />
        </mxCell>
        <mxCell id="yI6YtQsHIagEHyoHm0Sw-95" value="6" style="rounded=0;whiteSpace=wrap;html=1;fillColor=#D4E1F5;fontSize=14;" vertex="1" parent="yI6YtQsHIagEHyoHm0Sw-43">
          <mxGeometry x="180" y="20" width="20" height="20" as="geometry" />
        </mxCell>
        <mxCell id="yI6YtQsHIagEHyoHm0Sw-96" value="7" style="rounded=0;whiteSpace=wrap;html=1;fillColor=#D4E1F5;fontSize=14;" vertex="1" parent="yI6YtQsHIagEHyoHm0Sw-43">
          <mxGeometry x="200" y="20" width="20" height="20" as="geometry" />
        </mxCell>
        <mxCell id="yI6YtQsHIagEHyoHm0Sw-97" value="8" style="rounded=0;whiteSpace=wrap;html=1;fillColor=#D4E1F5;fontSize=14;" vertex="1" parent="yI6YtQsHIagEHyoHm0Sw-43">
          <mxGeometry x="220" y="20" width="20" height="20" as="geometry" />
        </mxCell>
        <mxCell id="yI6YtQsHIagEHyoHm0Sw-117" value="" style="shape=curlyBracket;whiteSpace=wrap;html=1;rounded=1;flipH=1;fontSize=14;fillColor=#D4E1F5;rotation=-90;strokeWidth=2;strokeColor=#FF66FF;" vertex="1" parent="yI6YtQsHIagEHyoHm0Sw-43">
          <mxGeometry x="150" y="-70" width="20" height="160" as="geometry" />
        </mxCell>
        <mxCell id="yI6YtQsHIagEHyoHm0Sw-100" value="1" style="rounded=0;whiteSpace=wrap;html=1;fillColor=#D4E1F5;fontSize=14;" vertex="1" parent="1">
          <mxGeometry x="467" y="560" width="20" height="20" as="geometry" />
        </mxCell>
        <mxCell id="yI6YtQsHIagEHyoHm0Sw-102" value="2" style="rounded=0;whiteSpace=wrap;html=1;fillColor=#D4E1F5;fontSize=14;" vertex="1" parent="1">
          <mxGeometry x="487" y="560" width="20" height="20" as="geometry" />
        </mxCell>
        <mxCell id="yI6YtQsHIagEHyoHm0Sw-103" value="8" style="rounded=0;whiteSpace=wrap;html=1;fillColor=#D4E1F5;fontSize=14;" vertex="1" parent="1">
          <mxGeometry x="607" y="560" width="20" height="20" as="geometry" />
        </mxCell>
        <mxCell id="yI6YtQsHIagEHyoHm0Sw-104" value="3" style="rounded=0;whiteSpace=wrap;html=1;fillColor=#D4E1F5;fontSize=14;" vertex="1" parent="1">
          <mxGeometry x="507" y="560" width="20" height="20" as="geometry" />
        </mxCell>
        <mxCell id="yI6YtQsHIagEHyoHm0Sw-105" value="7" style="rounded=0;whiteSpace=wrap;html=1;fillColor=#D4E1F5;fontSize=14;" vertex="1" parent="1">
          <mxGeometry x="587" y="560" width="20" height="20" as="geometry" />
        </mxCell>
        <mxCell id="yI6YtQsHIagEHyoHm0Sw-106" value="4" style="rounded=0;whiteSpace=wrap;html=1;fillColor=#D4E1F5;fontSize=14;" vertex="1" parent="1">
          <mxGeometry x="527" y="560" width="20" height="20" as="geometry" />
        </mxCell>
        <mxCell id="yI6YtQsHIagEHyoHm0Sw-107" value="5" style="rounded=0;whiteSpace=wrap;html=1;fillColor=#D4E1F5;fontSize=14;" vertex="1" parent="1">
          <mxGeometry x="547" y="560" width="20" height="20" as="geometry" />
        </mxCell>
        <mxCell id="yI6YtQsHIagEHyoHm0Sw-108" value="6" style="rounded=0;whiteSpace=wrap;html=1;fillColor=#D4E1F5;fontSize=14;" vertex="1" parent="1">
          <mxGeometry x="567" y="560" width="20" height="20" as="geometry" />
        </mxCell>
        <mxCell id="yI6YtQsHIagEHyoHm0Sw-109" value="cache line" style="text;html=1;strokeColor=none;fillColor=none;align=center;verticalAlign=middle;whiteSpace=wrap;rounded=0;fontSize=14;" vertex="1" parent="1">
          <mxGeometry x="380" y="560" width="80" height="20" as="geometry" />
        </mxCell>
        <mxCell id="yI6YtQsHIagEHyoHm0Sw-115" value="" style="shape=flexArrow;endArrow=classic;html=1;fontSize=14;fillColor=#A680B8;" edge="1" parent="1">
          <mxGeometry width="50" height="50" relative="1" as="geometry">
            <mxPoint x="546" y="670" as="sourcePoint" />
            <mxPoint x="546" y="580" as="targetPoint" />
          </mxGeometry>
        </mxCell>
        <mxCell id="yI6YtQsHIagEHyoHm0Sw-118" value="加载" style="text;html=1;strokeColor=none;fillColor=none;align=center;verticalAlign=middle;whiteSpace=wrap;rounded=0;fontSize=14;" vertex="1" parent="1">
          <mxGeometry x="547" y="630" width="40" height="20" as="geometry" />
        </mxCell>
        <mxCell id="yI6YtQsHIagEHyoHm0Sw-119" value="L3 Cache" style="text;html=1;strokeColor=none;fillColor=none;align=center;verticalAlign=middle;whiteSpace=wrap;rounded=0;fontSize=14;" vertex="1" parent="1">
          <mxGeometry x="580" y="596" width="70" height="20" as="geometry" />
        </mxCell>
      </root>
    </mxGraphModel>
  </diagram>
</mxfile>
